<svg width="148" height="66" viewBox="0 0 148 66" fill="none" xmlns="http://www.w3.org/2000/svg">
<g filter="url(#filter0_d_255_839)">
<path d="M72.1455 35.9848L76.722 38.3558C75.7651 39.6044 74.5655 40.6072 73.1232 41.3643C71.6809 42.1214 70.1069 42.5 68.4011 42.5C66.4873 42.5 64.7399 42.0285 63.159 41.0854C61.5919 40.1423 60.3368 38.8805 59.3937 37.2998C58.4646 35.7059 58 33.9459 58 32.0199C58 30.5588 58.2704 29.1973 58.8113 27.9355C59.3521 26.6603 60.0941 25.5446 61.0371 24.5882C61.994 23.6186 63.1035 22.8615 64.3655 22.3169C65.6275 21.7723 66.9727 21.5 68.4011 21.5C70.1069 21.5 71.6809 21.8786 73.1232 22.6357C74.5655 23.3928 75.7651 24.4089 76.722 25.6841L72.1455 28.0351C71.6601 27.5038 71.0846 27.092 70.4189 26.7998C69.7671 26.5076 69.0945 26.3615 68.4011 26.3615C67.4026 26.3615 66.5012 26.6271 65.6968 27.1584C64.8925 27.6765 64.2545 28.3672 63.783 29.2305C63.3115 30.0806 63.0757 31.0104 63.0757 32.0199C63.0757 33.0161 63.3115 33.9459 63.783 34.8093C64.2545 35.6594 64.8925 36.3435 65.6968 36.8615C66.5012 37.3795 67.4026 37.6385 68.4011 37.6385C69.1223 37.6385 69.8087 37.4924 70.4605 37.2002C71.1123 36.8947 71.674 36.4896 72.1455 35.9848Z" fill="#101010"/>
<path d="M88.9596 42.5C87.0458 42.5 85.2984 42.0285 83.7174 41.0854C82.1503 40.1423 80.8952 38.8805 79.9522 37.2998C79.023 35.7059 78.5585 33.9459 78.5585 32.0199C78.5585 30.5588 78.8289 29.1973 79.3697 27.9355C79.9106 26.6603 80.6525 25.5446 81.5956 24.5882C82.5525 23.6186 83.6619 22.8615 84.9239 22.3169C86.1859 21.7723 87.5312 21.5 88.9596 21.5C90.8734 21.5 92.6138 21.9715 94.1809 22.9146C95.7619 23.8577 97.017 25.1262 97.9461 26.7201C98.8892 28.314 99.3607 30.0806 99.3607 32.0199C99.3607 33.4677 99.0903 34.8226 98.5494 36.0844C98.0085 37.3463 97.2597 38.4621 96.3028 39.4317C95.3597 40.388 94.2572 41.1385 92.9952 41.6831C91.7471 42.2277 90.4019 42.5 88.9596 42.5ZM88.9596 37.6385C89.9719 37.6385 90.8803 37.3795 91.6847 36.8615C92.489 36.3435 93.12 35.6594 93.5777 34.8093C94.0492 33.9592 94.2849 33.0294 94.2849 32.0199C94.2849 30.9839 94.0422 30.0408 93.5569 29.1907C93.0853 28.3273 92.4405 27.6433 91.6223 27.1385C90.8179 26.6205 89.9303 26.3615 88.9596 26.3615C87.9611 26.3615 87.0596 26.6205 86.2553 27.1385C85.4509 27.6565 84.813 28.3472 84.3415 29.2106C83.87 30.074 83.6342 31.0104 83.6342 32.0199C83.6342 33.0693 83.8769 34.019 84.3623 34.8691C84.8477 35.7192 85.4925 36.3966 86.2969 36.9013C87.1151 37.3928 88.0027 37.6385 88.9596 37.6385Z" fill="#101010"/>
<path d="M115.578 35.9848L120.155 38.3558C119.198 39.6044 117.998 40.6072 116.556 41.3643C115.114 42.1214 113.54 42.5 111.834 42.5C109.92 42.5 108.173 42.0285 106.592 41.0854C105.025 40.1423 103.77 38.8805 102.827 37.2998C101.897 35.7059 101.433 33.9459 101.433 32.0199C101.433 30.5588 101.703 29.1973 102.244 27.9355C102.785 26.6603 103.527 25.5446 104.47 24.5882C105.427 23.6186 106.536 22.8615 107.798 22.3169C109.06 21.7723 110.405 21.5 111.834 21.5C113.54 21.5 115.114 21.8786 116.556 22.6357C117.998 23.3928 119.198 24.4089 120.155 25.6841L115.578 28.0351C115.093 27.5038 114.517 27.092 113.852 26.7998C113.2 26.5076 112.527 26.3615 111.834 26.3615C110.835 26.3615 109.934 26.6271 109.13 27.1584C108.325 27.6765 107.687 28.3672 107.216 29.2305C106.744 30.0806 106.509 31.0104 106.509 32.0199C106.509 33.0161 106.744 33.9459 107.216 34.8093C107.687 35.6594 108.325 36.3435 109.13 36.8615C109.934 37.3795 110.835 37.6385 111.834 37.6385C112.555 37.6385 113.242 37.4924 113.893 37.2002C114.545 36.8947 115.107 36.4896 115.578 35.9848Z" fill="#101010"/>
<path d="M138.924 22.0579H144V41.982H138.924L138.695 39.5114C138.127 40.4013 137.371 41.1252 136.428 41.6831C135.499 42.2277 134.396 42.5 133.12 42.5C131.581 42.5 130.139 42.2211 128.794 41.6632C127.448 41.1053 126.263 40.3349 125.236 39.352C124.224 38.3691 123.427 37.2334 122.844 35.945C122.276 34.6565 121.991 33.2751 121.991 31.8008C121.991 30.3795 122.262 29.0446 122.803 27.796C123.357 26.5474 124.127 25.4516 125.112 24.5085C126.096 23.5655 127.233 22.8283 128.523 22.297C129.813 21.7657 131.2 21.5 132.684 21.5C134.057 21.5 135.284 21.7922 136.366 22.3767C137.461 22.9611 138.39 23.7049 139.153 24.6082L138.924 22.0579ZM132.996 37.8178C134.077 37.8178 135.034 37.5588 135.866 37.0408C136.698 36.5228 137.35 35.8254 137.822 34.9488C138.293 34.0588 138.529 33.0825 138.529 32.0199C138.529 30.944 138.293 29.9677 137.822 29.0911C137.35 28.2011 136.691 27.4972 135.846 26.9791C135.013 26.4611 134.063 26.2021 132.996 26.2021C131.928 26.2021 130.95 26.4677 130.062 26.9991C129.189 27.5171 128.488 28.2144 127.961 29.0911C127.448 29.9677 127.192 30.944 127.192 32.0199C127.192 33.0958 127.455 34.0721 127.982 34.9488C128.509 35.8254 129.21 36.5228 130.083 37.0408C130.971 37.5588 131.942 37.8178 132.996 37.8178Z" fill="#101010"/>
<circle cx="25" cy="30.5" r="21" fill="#101010"/>
<path d="M31.4483 35.4412L36 37.741C34.8906 39.1831 33.4794 40.3368 31.7664 41.2021C30.0697 42.0674 28.2262 42.5 26.2358 42.5C23.9844 42.5 21.9288 41.9611 20.069 40.8833C18.2254 39.8055 16.749 38.3634 15.6396 36.5569C14.5465 34.7353 14 32.7239 14 30.5228C14 28.8529 14.3181 27.297 14.9544 25.8548C15.5907 24.3975 16.4635 23.1224 17.5729 22.0294C18.6986 20.9213 20.0037 20.056 21.4883 19.4336C22.9729 18.8112 24.5554 18.5 26.2358 18.5C28.2262 18.5 30.0697 18.9326 31.7664 19.7979C33.4794 20.6632 34.8906 21.8245 36 23.2818L31.4483 25.5816C30.7631 24.8226 29.9637 24.2457 29.0501 23.851C28.1364 23.4412 27.1984 23.2362 26.2358 23.2362C24.898 23.2362 23.6826 23.5778 22.5895 24.2609C21.5128 24.9288 20.6563 25.8169 20.02 26.925C19.4001 28.018 19.0901 29.2173 19.0901 30.5228C19.0901 31.8131 19.4082 33.0123 20.0445 34.1205C20.6808 35.2135 21.5373 36.0939 22.614 36.7619C23.7071 37.4298 24.9143 37.7638 26.2358 37.7638C27.2473 37.7638 28.2099 37.5512 29.1235 37.1262C30.0371 36.7011 30.812 36.1395 31.4483 35.4412Z" fill="white"/>
</g>
<defs>
<filter id="filter0_d_255_839" x="0" y="0" width="148" height="74" filterUnits="userSpaceOnUse" color-interpolation-filters="sRGB">
<feFlood flood-opacity="0" result="BackgroundImageFix"/>
<feColorMatrix in="SourceAlpha" type="matrix" values="0 0 0 0 0 0 0 0 0 0 0 0 0 0 0 0 0 0 127 0" result="hardAlpha"/>
<feOffset dy="4"/>
<feGaussianBlur stdDeviation="2"/>
<feComposite in2="hardAlpha" operator="out"/>
<feColorMatrix type="matrix" values="0 0 0 0 0 0 0 0 0 0 0 0 0 0 0 0 0 0 0.25 0"/>
<feBlend mode="normal" in2="BackgroundImageFix" result="effect1_dropShadow_255_839"/>
<feBlend mode="normal" in="SourceGraphic" in2="effect1_dropShadow_255_839" result="shape"/>
</filter>
</defs>
</svg>
